<svg id="Layer_1" data-name="Layer 1" xmlns="http://www.w3.org/2000/svg" viewBox="0 0 612 792"><defs><style>.cls-1{fill:#fff;stroke:#5050f9;stroke-miterlimit:10;stroke-width:10px;}.cls-2{fill:#5050f4;}</style></defs><circle class="cls-1" cx="306" cy="396" r="243"/><polygon class="cls-2" points="175.96 224 161.39 255.12 149.58 298.2 148.63 338.44 148.63 376.99 154.75 395.64 162.41 401.86 176.2 414.29 211.43 435.43 216.03 427.35 232.37 425.48 235.95 483.93 214.5 480.2 205.31 461.54 150.43 421.93 131.78 387.55 131.78 339.06 136.35 293.88 153.32 251.77 167.01 232.74 175.96 224"/><polygon class="cls-2" points="226.45 394.4 242.36 450.24 253.46 489.11 306 505 283.45 489.01 270.83 479.79 261.95 444 293.51 429.75 288.32 411.7 258.33 426.99 248.86 393.59 278.95 367.08 272.56 339.56 226.45 394.4"/><polygon class="cls-2" points="217.62 499.81 235.99 506.01 266.15 542.57 281.02 556.98 305.7 574.16 306 600.68 270.04 572.09 252.78 556.03 217.62 499.81"/><polygon class="cls-2" points="436.04 224 450.61 255.12 462.42 298.2 463.37 338.44 463.37 376.99 457.24 395.64 449.58 401.86 435.8 414.29 400.56 435.43 395.97 427.35 379.63 425.48 376.05 483.93 397.5 480.2 406.69 461.54 461.57 421.93 480.22 387.55 480.22 339.06 475.64 293.88 458.67 251.77 444.99 232.74 436.04 224"/><polygon class="cls-2" points="385.55 394.4 369.64 450.24 358.53 489.11 306 505 328.55 489.01 341.17 479.79 350.05 444 318.48 429.75 323.67 411.7 353.66 426.99 363.13 393.59 333.05 367.08 339.44 339.56 385.55 394.4"/><polygon class="cls-2" points="394.38 499.81 376.01 506.01 345.85 542.57 330.98 556.98 305.7 574.16 306 600.68 341.95 572.09 359.22 556.03 394.38 499.81"/></svg>